<mxfile host="app.diagrams.net" modified="2023-07-06T13:59:15.021Z" agent="Mozilla/5.0 (Windows NT 10.0; Win64; x64) AppleWebKit/537.36 (KHTML, like Gecko) Chrome/114.0.0.0 Safari/537.36 Edg/114.0.1823.67" version="21.6.1" etag="V_UJXnfrVQVDT5iQ2HOy" type="github">
  <diagram name="第 1 页" id="Eh0klDO4q_jvqUUKYp5K">
    <mxGraphModel>
      <root>
        <mxCell id="0" />
        <mxCell id="1" parent="0" />
      </root>
    </mxGraphModel>
  </diagram>
</mxfile>
